# xmcd
#
# Track frame offsets: 
#        150
#        20510
#        40495
#        56777
#        90522
#        107502
#        139312
#        186695
#        203897
#        218027
#        241137
#        260725
#        289740
#        302222
#        313877
#
# Disc length: 4376 seconds
#
# Revision: 0
# Processed by: cddbd v1.5.2PL0 Copyright (c) Steve Scherf et al.
# Submitted via: ExactAudioCopy v0.99pb5
#
DISCID=ea11160f
DTITLE=Godz  - Power Rock From USA  FLAC
DYEAR=1900
DGENRE=
TTITLE0=Go Away
TTITLE1=Baby I Love You
TTITLE2=Guaranteed
TTITLE3=Gotta Keep A Runnin'
TTITLE4=Under The Table
TTITLE5=Cross Country
TTITLE6=Candy's Going Bad
TTITLE7=Gotta Muv (Bonus)
TTITLE8=Rock Yer Sox Auf (Bonus)
TTITLE9=I'll Bi Yer Luv (Bonus)
TTITLE10=Luv Kage (Bonus)
TTITLE11=He's A Fool
TTITLE12=714
TTITLE13=Hey Mama
TTITLE14=Unknown
EXTD=
EXTT0=
EXTT1=
EXTT2=
EXTT3=
EXTT4=
EXTT5=
EXTT6=
EXTT7=
EXTT8=
EXTT9=
EXTT10=
EXTT11=
EXTT12=
EXTT13=
EXTT14=
PLAYORDER=
